<?xml version="1.0" standalone="no"?>
<!DOCTYPE svg PUBLIC "-//W3C//DTD SVG 20010904//EN"
 "http://www.w3.org/TR/2001/REC-SVG-20010904/DTD/svg10.dtd">
<svg version="1.0" xmlns="http://www.w3.org/2000/svg"
 width="100.000000pt" height="100.000000pt" viewBox="0 0 100.000000 100.000000"
 preserveAspectRatio="xMidYMid meet">

<g transform="translate(0.000000,100.000000) scale(0.100000,-0.100000)"
fill="#000000" stroke="none">
<path d="M390 742 c-52 -8 -110 -71 -110 -120 0 -11 -18 -38 -40 -60 -36 -36
-40 -45 -40 -89 0 -56 22 -93 70 -118 42 -22 418 -22 460 0 48 25 70 62 70
116 0 42 -5 55 -32 84 -23 25 -45 38 -73 42 -22 3 -53 17 -68 30 -16 12 -39
23 -52 23 -15 0 -33 12 -50 34 -32 42 -86 66 -135 58z m90 -41 c14 -10 29 -27
35 -39 6 -14 22 -23 47 -27 20 -4 49 -17 63 -31 14 -13 38 -24 53 -24 43 0 89
-34 101 -74 14 -52 -3 -103 -42 -126 -29 -18 -52 -20 -237 -20 -185 0 -208 2
-237 20 -64 39 -63 143 3 182 27 16 34 26 34 52 0 91 104 141 180 87z"/>
<path d="M480 296 c0 -15 -43 -26 -106 -26 -24 0 -44 -4 -44 -9 0 -12 154 -22
233 -14 71 6 92 23 30 23 -53 0 -83 10 -83 26 0 8 -7 14 -15 14 -8 0 -15 -6
-15 -14z"/>
</g>
</svg>
