<?xml version="1.0" standalone="no"?>
<!DOCTYPE svg PUBLIC "-//W3C//DTD SVG 20010904//EN"
 "http://www.w3.org/TR/2001/REC-SVG-20010904/DTD/svg10.dtd">
<svg version="1.0" xmlns="http://www.w3.org/2000/svg"
 width="100.000000pt" height="100.000000pt" viewBox="0 0 100.000000 100.000000"
 preserveAspectRatio="xMidYMid meet">

<g transform="translate(0.000000,100.000000) scale(0.100000,-0.100000)"
fill="#000000" stroke="none">
<path d="M408 699 c-67 -10 -110 -30 -132 -61 -23 -33 -23 -293 0 -326 22 -32
64 -51 136 -61 115 -16 244 16 267 65 6 15 11 83 11 165 l0 141 -28 28 c-44
44 -149 64 -254 49z m209 -34 c80 -32 61 -83 -40 -105 -97 -21 -229 -7 -276
29 -44 34 -9 70 94 95 40 10 181 -2 222 -19z m-209 -126 c77 -13 180 -1 234
27 l29 15 -3 -37 c-4 -49 -36 -72 -122 -86 -50 -8 -87 -8 -139 0 -88 13 -121
36 -125 86 l-3 37 29 -15 c17 -9 61 -21 100 -27z m-58 -85 c20 -7 75 -13 125
-13 80 0 112 6 178 34 16 7 18 3 15 -31 -2 -31 -9 -42 -38 -59 -30 -17 -52
-20 -155 -20 -103 0 -125 3 -155 20 -29 17 -36 28 -38 59 -3 34 -1 38 15 31
10 -4 34 -14 53 -21z m-17 -91 c25 -14 56 -18 142 -18 86 0 117 4 142 18 44
24 53 22 53 -12 0 -59 -61 -86 -195 -86 -134 0 -195 27 -195 86 0 34 9 36 53
12z"/>
</g>
</svg>
