<svg xmlns="http://www.w3.org/2000/svg" viewBox="0 0 50 60"><defs><style>.cls-1{fill:#f8981d;}</style></defs><title>dbsvg</title><g id="Layer_2" data-name="Layer 2"><g id="Layer_1-2" data-name="Layer 1"><path class="cls-1" d="M50,45.14v6.15C50,56.09,38.36,60,25,60S0,56.09,0,51.28V45.14c6,4.35,17.51,5.64,25,5.64S44,49.47,50,45.14ZM25,36.61c-7.52,0-19-1.31-25-5.64v6.09c0,4.82,11.64,8.72,25,8.72s25-3.91,25-8.72V31C44,35.32,32.49,36.61,25,36.61ZM25,0C11.64,0,0,3.91,0,8.72s11.64,8.72,25,8.72,25-3.9,25-8.72S38.36,0,25,0Zm0,22.44c-7.52,0-19-1.31-25-5.64v6.1c0,4.81,11.64,8.72,25,8.72s25-3.91,25-8.72V16.8C44,21.14,32.49,22.44,25,22.44Z"/></g></g></svg>