<svg xmlns="http://www.w3.org/2000/svg" viewBox="0 0 98.95 53.6"><defs><style>.cls-1{fill:#f8981d;}</style></defs><title>phpsvg</title><g id="Layer_2" data-name="Layer 2"><g id="Layer_1-2" data-name="Layer 1"><path id="surface1" class="cls-1" d="M49.47,0C21.73,0,0,11.77,0,26.8S21.73,53.6,49.47,53.6,98.95,41.83,98.95,26.8,77.22,0,49.47,0ZM44.34,8.25h5.4L48,16.49h4.82c3.06,0,5.11.43,6.28,1.5s1.49,2.79,1,5.15L58,33H52.53l2-9.11a3.05,3.05,0,0,0-.27-2.58,3.8,3.8,0,0,0-2.71-.68H47.19L44.58,33H39.17ZM20.61,16.49h11c5.24,0,8.41,3.51,7.17,8.75C37.34,31.33,33.48,33,26.37,33H23l-1.08,6.18H16.44Zm43.29,0h11c5.24,0,8.41,3.51,7.17,8.75C80.63,31.33,76.77,33,69.66,33h-3.4l-1.08,6.18H59.73ZM25.29,20.61l-1.55,8.25h3.53c3.05,0,5.89-.35,6.36-4.9.18-1.76-.55-3.35-4.08-3.35Zm43.29,0L67,28.86h3.53c3.05,0,5.89-.35,6.36-4.9.18-1.76-.56-3.35-4.08-3.35Z"/></g></g></svg>