<svg xmlns="http://www.w3.org/2000/svg" viewBox="0 0 224 268.8"><defs><style>.cls-1{fill:#f8981d;}.cls-2{fill:#1f4a60;opacity:0.3;}</style></defs><title>dbabout</title><g id="Layer_2" data-name="Layer 2"><g id="Layer_1-2" data-name="Layer 1"><path class="cls-1" d="M0,75.25v27.33c0,21.57,52.15,39.05,112,39.05s112-17.49,112-39.05V75.25c-27.08,19.47-78.46,25.27-112,25.27S27,94.66,0,75.25Z"/><path class="cls-2" d="M112,78.12c59.86,0,112-17.49,112-39.05S171.86,0,112,0,0,17.49,0,39.07,52.15,78.12,112,78.12Z"/><path class="cls-1" d="M0,202.22v27.53c0,21.56,52.15,39.05,112,39.05s112-17.49,112-39.05V202.22c-27,19.41-78.33,25.27-112,25.27S27.08,221.68,0,202.22Z"/><path class="cls-2" d="M0,138.77V166c0,21.57,52.15,39.05,112,39.05S224,187.59,224,166V138.77C196.92,158.23,145.54,164,112,164S27,158.18,0,138.77Z"/></g></g></svg>