<svg xmlns="http://www.w3.org/2000/svg" viewBox="0 0 189.2 83.15"><defs><style>.cls-1{fill:#fff;}.cls-2{fill:#f8981d;}.cls-3{font-size:16.51px;fill:#f8f8ff;font-family:MyriadPro-Regular, Myriad Pro;}.cls-4{letter-spacing:-0.01em;}.cls-5{letter-spacing:0.03em;}.cls-6{letter-spacing:0em;}</style></defs><title>headlogo</title><g id="Layer_2" data-name="Layer 2"><g id="Layer_1-2" data-name="Layer 1"><path class="cls-1" d="M49.56,45.24H42.09q-.4-18.9-2.18-35.55h-.07L28.48,45.24H22.8L11.5,9.69h-.06q-1.26,16-1.59,35.55H3Q3.7,21.45,6.35.63H15.6L26.37,33.41h.07L37.27.63h8.85Q49,25,49.56,45.24M81.94,12.33q-4.56,24.74-12,36-5.82,8.64-12.75,8.64a12.54,12.54,0,0,1-4.56-1.11v-4a22,22,0,0,0,3.1.2,7.5,7.5,0,0,0,5.22-1.79,6.52,6.52,0,0,0,2.38-4.89q0-1.86-1.85-7.6L53.26,12.33h7.33l5.88,19q2,6.48,1.65,9.06a124.29,124.29,0,0,0,6.74-28.08h7.07Z"/><polygon class="cls-2" points="189.2 45.24 168 45.24 168 0.63 175.13 0.63 175.13 39.75 189.2 39.75 189.2 45.24"/><path class="cls-2" d="M114.64,32.88a11.83,11.83,0,0,1-4.16,9.32q-4.16,3.63-11.16,3.63a22.35,22.35,0,0,1-12.69-4.17l1.92-3.83a21.7,21.7,0,0,0,9.58,2.64,10.06,10.06,0,0,0,6.31-1.78,6.06,6.06,0,0,0,2.43-5c0-2.65-1.85-4.91-5.24-6.81-3.13-1.72-9.38-5.31-9.38-5.31-3.39-2.47-5.09-5.12-5.09-9.49A11.08,11.08,0,0,1,91,3.38,14.31,14.31,0,0,1,100.77,0a20.35,20.35,0,0,1,11.29,3.31l-1.72,3.83a21.84,21.84,0,0,0-8.58-1.85A7.65,7.65,0,0,0,96.48,7a5.53,5.53,0,0,0-2,4.23c0,2.64,1.89,4.93,5.37,6.87,3.17,1.72,9.58,5.37,9.58,5.37,3.48,2.47,5.21,5.09,5.21,9.43"/><text class="cls-3" transform="translate(0 79.02)">A<tspan class="cls-4" x="10.11" y="0">N</tspan><tspan class="cls-5" x="20.85" y="0">Y</tspan><tspan class="cls-6" x="30.27" y="0">WHERE</tspan></text><path class="cls-2" d="M123.24,6.54a21.57,21.57,0,1,0,33.61,26.72c-.58.21-2-1.13-2.48-2.32s-1.44-4.93-3.53-4.31-2.07-.1-3.77-.14-1.5-.51-1.78-.67c-1-.58-1.19-2.71-1.26-2.87a3.86,3.86,0,0,0-.68-.72,2.31,2.31,0,0,0-1.26.27c-.16.14,0,.46-.17.69a6.9,6.9,0,0,1-2,.64c-.34,0-.79-.21-1.33-.2s-.35.24-.93.51-2.4,1.14-3.83,1.77a2.06,2.06,0,0,1-2.55-.25c-.43-.39-1.64-.36-2.36-.5s-1.38-.67-1.34-.43,2.25,1.13,2.19,1.28-.76-.09-1.45-.17.13-.49-2.72-1.38-2.58-3.1-3.52-4.12,1.16-.46.14-.69-1.94-1.94-2.71-2.11-1.42,2.55-1.42,2.55c-.42-.5.2-2.74.49-4.52s1.49-1.87,2.59-2.45,1.06-.73.51-.71-.29-.52.46-1.08,1.73,0,2.64-1.05.3.09.69.2.08.37-.11,1.48.47.43,2.47.08.22-1.37-.53-1.87.7-1,.7-1c1.19-.26.6-.57,1.28-.93a15.52,15.52,0,0,1,3.29-.62c-.76,2.75.44,1.72,1,1.64s.06,1.27.06,1.27c-.74,0-.41.45-.51.83s.47.48.47.48c-1,1.44.57,2.44.9,2.73s0,1.58.27,2.23,2,.85,1.64,1.3-2.24-.65-3.73,2c-.45.81-1.09,2.94,1.14,3.63s1.53-2.42,2.15-2.64,1,1.25,1.15,1.18a1.79,1.79,0,0,1,2.55,0c1.35,1.19,2.81-.53,3.18-.85s.52-2.44.63-2.65.2-1.42,2.44-2.06,2.84-1.5,3.67-1.66,1.19.86,1.87.61,2.2-2.42,3.43-2.14,2.76,6.44,2.45,7.61.32,2.45.2,3.81a34.14,34.14,0,0,1-.75,4.73c-.33,1.39.45,2.47.37,3.15A21.58,21.58,0,0,0,123.24,6.54Zm18,10.48c-.15.27-.18,1.09-1.85,1.55a7.85,7.85,0,0,0-2.47,1.3s-.34-.16.06-.67c.84-1.05,3-1.31,3.29-1.57s.12-.67.75-1S141.43,16.75,141.28,17Zm-17.9-7.55c-.18,0-.08-.25-.12-.51s-.22-.24-.22-.41c0-.45.76-1.87,1.17-1.05S123.67,9.43,123.38,9.47Zm4.59-.8c-.38.36-1.34,1.16-1.34.84,0-1.26-1.05-.55-1.62-.05s-1.1.43-.86.13a5.92,5.92,0,0,1,1.66-1.38c.33,0,1.67-.64,2-.42S128.36,8.31,128,8.68Zm3.08-3.38c-.05.54-2.64,1-3.17,1-2.32.21-2.62,1.24-3.06,1.34s-.59-.24-.56-1,1.63-1.44,2.35-2a2.2,2.2,0,0,1,2.61-.28C129.86,4.92,131.11,4.76,131.06,5.3Z"/><path class="cls-2" d="M152.57,34.55l-2.83,4.55,8.2,6.64,3.49-4.62Z"/></g></g></svg>