<svg xmlns="http://www.w3.org/2000/svg" viewBox="0 0 464.72 281.91"><defs><style>.cls-1{fill:#fff;}.cls-2{fill:#f8981d;}.cls-3{font-size:30.27px;font-family:MyriadPro-Regular, Myriad Pro;}.cls-3,.cls-6{fill:#f8f8ff;}.cls-4{letter-spacing:-0.01em;}.cls-5{letter-spacing:0.03em;}</style></defs><title>mysqlmid</title><g id="Layer_2" data-name="Layer 2"><g id="Layer_1-2" data-name="Layer 1"><path class="cls-1" d="M154.15,201.05H140.46q-.73-34.66-4-65.18h-.12L115.5,201.05H105.08L84.36,135.87h-.12q-2.31,29.31-2.91,65.18H68.86q1.21-43.62,6.05-81.78h17l19.75,60.09h.12l19.87-60.09h16.23q5.33,44.71,6.3,81.78m59.36-60.34q-8.36,45.37-22.05,65.94-10.67,15.84-23.38,15.84a23,23,0,0,1-8.36-2v-7.29a40.26,40.26,0,0,0,5.69.37,13.76,13.76,0,0,0,9.58-3.27q4.36-4,4.36-9,0-3.4-3.39-13.93l-15-46.65h13.45l10.78,34.89q3.63,11.88,3,16.6a227.9,227.9,0,0,0,12.36-51.49h13Z"/><polygon class="cls-2" points="410.19 201.05 371.31 201.05 371.31 119.27 384.39 119.27 384.39 190.99 410.19 190.99 410.19 201.05"/><path class="cls-2" d="M273.47,178.38a21.7,21.7,0,0,1-7.63,17.08q-7.63,6.66-20.47,6.66-12,0-23.26-7.64l3.52-7q9.69,4.85,17.56,4.84,7.39,0,11.57-3.26a11.11,11.11,0,0,0,4.45-9.08c0-4.86-3.39-9-9.6-12.49-5.73-3.15-17.2-9.73-17.2-9.73-6.21-4.53-9.32-9.39-9.32-17.4q0-9.94,7-16.05t18-6.12a37.31,37.31,0,0,1,20.71,6.06l-3.15,7a40,40,0,0,0-15.74-3.39c-4.19,0-7.43,1-9.68,3a10.13,10.13,0,0,0-3.67,7.76c0,4.84,3.46,9,9.85,12.59,5.81,3.15,17.56,9.85,17.56,9.85,6.37,4.52,9.55,9.34,9.55,17.28"/><path class="cls-1" d="M417.73,61c-8.28,3.43-14.25,7.07-18.57,11.68-1.26,1.3-3.71,2.38-3.06,4.42,1.19.45,1.88,1.74,3.1,2.55a26,26,0,0,0,8.08,3.87c2.87.69,5.75,1.36,8.64,1.79,5.07.69,10.22.12,15.18.86,2.89.42,6,1.27,8.9,1.8,1.48.33,2.78,1.34,4.45,1.21l-.14-.31c-1.13-.6-1.93-1.84-3.09-2.55l-4.39-1.6a53.26,53.26,0,0,0-15.22-5.6c-4.28-.8-12.8-.69-15.8-3.87l-.3-.12a44.58,44.58,0,0,0,6.32-4.79c3.07-2.46,6.34-3.66,9.5-6.17,1.46-1.14,2.86-2.38,4.28-3.62l-.41-.92c-2.67-1-5.08-2.88-7.79-3.76A149,149,0,0,0,395,50.78c-4.09-.64-8.76-.15-12.91-.39-1.49-.08-3.68.53-4.85-.17-2.83-1.44-5.18-3.94-7.69-6-5.45-4.31-11.09-9.27-16.28-14.08-3.62-3.17-6.51-6.65-10.39-9.34C324.56,8.08,308.44,2.64,286.26.11c-4.74-.47-9.64.61-14.95,1.61l-7.85,3c-2,0-4.46-1.21-6.3-1.49-7.47-1.09-26-2.39-25.66,10,.19,7.88,10,11.38,13.8,13.71,2.78,1.57,6.22,3.24,8.61,5.36,1.49,1.42,2.51,3.17,4,4.69,3.64,3.77,7.39,8.1,11.41,11.35A53.4,53.4,0,0,0,276,53c1.32.77,3,.64,4.11,2.34-.52,2.67.73,5.79,1,8.72,1.45,13.19,9.25,26.87,18.23,33,2.77,1.83,9.16,5.73,13.41,1.26,3.79-3.89.18-9.26-.76-15-.24-1.37-.8-2.09-.55-3.17l.09.2c2.7,2.23,5.36,4.34,8,6.63,5.4,3.6,13.24,6.36,19.38,7.79,3.27.76,6.62,3.07,10.19,2.83l-.14-.31-.2.09a12.54,12.54,0,0,0-3.25-1,54.34,54.34,0,0,1-8-3.77A144.14,144.14,0,0,1,317.72,79.2c-3.06-2.44-6-5.28-8.76-7.87-1.16-.95-2-2.79-3.28-3-.54,2.93-1.92,5.87-1.82,9.13,0,5.27,2.21,10.78,4,16.73l-.31.38c-3.62.63-6.25-2.24-8.76-4.55-6.29-5.91-12-17.34-13-26.9-.24-2.46-.16-10.58-2.29-12.08-1.49-1.68-4-1.89-5.83-2.93A45.49,45.49,0,0,1,271,43.24c-5-4.64-9-10.43-14.23-15-2.42-2.12-5.79-3.93-8.61-5.61C245,20.76,242,19.77,239,17.18c-1-.9-2.54-2.42-2.27-4a1.78,1.78,0,0,1,.84-2c.83-1.71,5.25-2,6.85-1.94a56.7,56.7,0,0,1,12.4.61c1.89.39,4.29,1.65,6.35,1.35l2.15-1c3.58-.74,7-2.89,10.52-3.33a72,72,0,0,1,17.86.51,99.29,99.29,0,0,1,47.43,20.82c2.27,1.81,3.74,3.73,5.95,5.68,4.38,4.06,9.32,8,13.63,11.95s8.51,7.85,13.35,10.48c2.48,1.47,9.13-.14,12.39-.24,2.45,0,6-.58,8.32-.27,4.43.6,9,1.52,13.31,2.43,2.17.5,8.43.79,9.64,2.7M273.94,18.44a17.43,17.43,0,0,0-4,2.37l.09.21.2-.09c1.55,1.27,3.48,1.77,5.14,2.74,1.55,1.27,3,2.58,4.52,3.86l.11-.29c1-1.66,1-3.62-.11-6.07a25.58,25.58,0,0,1-2.19-1.6c-1.06-.76-2.61-.68-3.8-1.13"/><text class="cls-3" transform="translate(63.28 263)">A<tspan class="cls-4" x="18.53" y="0">N</tspan><tspan class="cls-5" x="38.24" y="0">Y</tspan><tspan x="55.49" y="0">WHERE</tspan></text><path class="cls-6" d="M455.85,104.79V230.27c0,23.71-19.81,43-44.15,43H265.63v8.64H411.7c29.24,0,53-23.17,53-51.65V104.79ZM0,104.11V226.23H8.87V104.11c0-23.71,19.81-43,44.15-43H195.65V52.46H53C23.78,52.46,0,75.63,0,104.11Z"/><path class="cls-2" d="M289.24,130.1a39.56,39.56,0,1,0,61.63,49c-1.06.39-3.75-2.07-4.55-4.25-.88-2.42-2.64-9-6.48-7.91s-3.8-.19-6.92-.26-2.76-.93-3.27-1.24c-1.76-1.07-2.18-5-2.32-5.27a7.08,7.08,0,0,0-1.25-1.32,4.23,4.23,0,0,0-2.31.5c-.3.25,0,.85-.31,1.26s-3,1.08-3.67,1.17-1.45-.39-2.44-.37-.65.45-1.71.93-4.4,2.09-7,3.24-3.88.27-4.68-.45-3-.67-4.34-.91-2.52-1.23-2.46-.79,4.13,2.07,4,2.35-1.4-.17-2.65-.32.23-.9-5-2.52-4.73-5.68-6.45-7.56,2.12-.85.25-1.26-3.55-3.55-5-3.86-2.61,4.68-2.61,4.68c-.78-.92.36-5,.89-8.29s2.73-3.42,4.74-4.49,1.95-1.34.94-1.3-.53-.95.85-2,3.17.06,4.83-1.93.55.16,1.26.36.15.68-.21,2.71.86.78,4.54.15.4-2.52-1-3.43,1.28-1.82,1.28-1.82c2.18-.47,1.1-1,2.35-1.71s6-1.14,6-1.14c-1.4,5,.81,3.16,1.76,3s.12,2.32.12,2.32c-1.37,0-.75.83-.93,1.52s.86.89.86.89c-1.87,2.64,1,4.47,1.66,5s0,2.9.5,4.09,3.6,1.56,3,2.39-4.12-1.2-6.83,3.7c-.82,1.48-2,5.38,2.09,6.66s2.8-4.44,3.95-4.84,1.92,2.29,2.11,2.16a3.29,3.29,0,0,1,4.67.07c2.47,2.18,5.15-1,5.82-1.56s.95-4.47,1.16-4.85.37-2.6,4.48-3.78,5.21-2.75,6.73-3,2.18,1.58,3.43,1.13,4-4.43,6.28-3.92,5.06,11.81,4.49,13.95.58,4.5.37,7a62.6,62.6,0,0,1-1.38,8.68c-.61,2.55.83,4.52.68,5.77a39.56,39.56,0,0,0-62.07-48.29Zm33.09,19.22c-.27.5-.33,2-3.4,2.84s-4.17,2.41-4.53,2.39c0,0-.63-.29.12-1.23,1.54-1.93,5.51-2.4,6-2.87s.23-1.23,1.38-1.84S322.59,148.82,322.33,149.32Zm-32.82-13.84c-.33.06-.15-.45-.22-.94,0-.28-.4-.45-.4-.75,0-.82,1.4-3.44,2.14-1.93S290,135.39,289.51,135.48Zm8.42-1.46c-.7.67-2.46,2.13-2.46,1.54,0-2.3-1.93-1-3-.09s-2,.79-1.58.24,2.45-2.47,3.05-2.53,3.07-1.16,3.7-.76S298.63,133.35,297.93,134Zm5.65-6.2c-.1,1-4.84,1.8-5.82,1.89-4.26.39-4.8,2.28-5.61,2.45s-1.08-.44-1-1.83,3-2.64,4.32-3.72,3.64-1.58,4.78-.52S303.67,126.83,303.58,127.82Z"/><path class="cls-2" d="M343,181.45l-5.19,8.34,15,12.17,6.39-8.47Z"/></g></g></svg>