<svg xmlns="http://www.w3.org/2000/svg" viewBox="0 0 617.61 343.14"><defs><style>.cls-1{opacity:0.3;}.cls-2{fill:#1f4a60;}.cls-3{fill:#f8981d;}</style></defs><title>phpmyadminabout</title><g id="Layer_2" data-name="Layer 2"><g id="Layer_1-2" data-name="Layer 1"><g id="g5" class="cls-1"><path id="path14" class="cls-2" d="M458.73,1l-.32-.65a.84.84,0,0,0-.64-.32l-.65.16c-.32.32-.48.48-.48.81L442.89,249.69l2.1-.32L458.25,7.42l15.84,26h-.16q17.94,52.85,15,112.49l1,1.45,15.68,27.8,1,1q36.12,31.76,81,42.67l7.27,11.8,1,.32.16-.32L458.41,5.64,458.73,1"/><path id="path18" class="cls-2" d="M453.89,88.73q25.45,52.12,18.59,157.58l66.1-8.08Z"/><path id="path20" class="cls-2" d="M604.52,241.46q10.18-1.21,13.09-4.36L271.74,279.28h-.16c.16,14.38,6.63,25.7,19.23,33.78A41.25,41.25,0,0,0,301,318.4a41.42,41.42,0,0,1,10.51-8.57h.16q54.31-33,161.14-10.34l.81.16c7.76,1.62,15.52,3.56,22.79,5.82a6.29,6.29,0,0,0,5.33-1.62,25.81,25.81,0,0,1,10.18-4.36v-.16c11.48-20.36,27-35.4,46.39-45.25a131.64,131.64,0,0,1,46.22-12.61"/><path id="path22" class="cls-2" d="M438.37,247.77,454.21,5A823.62,823.62,0,0,1,343.82,253.1l94.55-5.33"/><path id="path24" class="cls-2" d="M349.32,52.21l-.65-.32L348,52l-.32.81L334.61,263l1.94-.16L349.64,52.85l-.32-.64"/><path id="path26" class="cls-2" d="M330.89,258.43h0L344.79,53.5,271.57,264.74l59.32-6.3"/></g><g id="g13" class="cls-1"><path id="path34" class="cls-2" d="M333.8,326.75c-18.26,8.73-31.52,10.18-39.92,4.85q-12.61-8.49-38.79,3.88"/><path id="path36" class="cls-2" d="M376.63,328a47.35,47.35,0,0,0-11-2.26c-7.92-.65-17.46,2.42-28.61,9.05-11.15,6.79-24.57,9.37-40.57,7.92"/><path id="path38" class="cls-2" d="M476.35,311.55Q360.95,287.8,310,322.87"/><path id="path40" class="cls-2" d="M524.84,319.15a35,35,0,0,0-11-2.26c-7.92-.65-17.45,2.42-28.61,9.05s-24.57,9.21-40.57,7.92"/><path id="path42" class="cls-2" d="M421.56,54.14c-7.92-4.85-16.16-3.56-24.73,4-7.43-7.59-15.19-8.89-23.27-4"/><path id="path44" class="cls-2" d="M403.62,27c-8.08-4.85-16-2.91-24.08,5.82-7.92-8.73-16-10.67-24.08-5.82"/></g><g id="g33" class="cls-1"><path id="path66" class="cls-2" d="M8.94,280H30.36q9.66,0,14.18,5.5t2.94,15.32a25.76,25.76,0,0,1-2.32,7.4,23.82,23.82,0,0,1-4.42,6.15,19.2,19.2,0,0,1-7.32,4.8,31.23,31.23,0,0,1-10.36,1.45H13.52l-2.37,14.69H0L8.94,280Zm9.73,8.75L14.92,312h6.78q6.74,0,10-2.75T36,300.08q1-6.19-1.16-8.73T26.3,288.8H18.67"/><path id="path68" class="cls-2" d="M60,265.36H71L68.67,280h9.84q9.29,0,12.87,3.52t2.33,11.34l-4.16,25.76H78.32l4-24.52q.68-4.18-.65-5.69T76.06,289H67.23l-5.12,31.71H51L60,265.36"/><path id="path70" class="cls-2" d="M105.75,280h21.42q9.66,0,14.18,5.5t2.94,15.32a25.8,25.8,0,0,1-2.32,7.4,23.87,23.87,0,0,1-4.42,6.15,19.21,19.21,0,0,1-7.32,4.8,31.22,31.22,0,0,1-10.36,1.45h-9.54L108,335.36H96.81L105.75,280Zm9.73,8.75L111.73,312h6.78q6.74,0,10-2.75t4.29-9.17q1-6.19-1.16-8.73t-8.51-2.55h-7.63"/></g><g id="g65"><path id="path72" class="cls-3" d="M163.12,253.6h21.43L194,305l26-51.43h21.35l-10.83,67H216.21l9.62-52.2-26.25,52.2h-15.5l-9.86-52.75-7.06,52.75H152.29l10.83-67"/><path id="path74" class="cls-3" d="M267.06,309.78h10.82l6.2-38.37h13.45l-7.74,47.9q-1.58,9.77-7.06,14.47t-15.2,4.7H241.16l1.61-10h24.06a10,10,0,0,0,6.24-1.81,7.88,7.88,0,0,0,2.93-5.25l.13-.82h-11.9q-11.42,0-15.58-4.35t-2.51-14.52L251,271.4h13.3l-4.74,29.34q-.9,5.57.55,7.3t6.92,1.73"/><path id="path76" class="cls-3" d="M333.75,253.6h15.49l18.77,67H351.76l-3.8-16H317.8l-8.76,16H293.55l40.2-67Zm5,13.31L324.46,292.7h20.68l-6.36-25.79"/><path id="path78" class="cls-3" d="M418.7,320.62H392.87q-11.71,0-17.2-6.66t-3.56-18.56a31.19,31.19,0,0,1,2.82-9,28.88,28.88,0,0,1,5.36-7.46,23.25,23.25,0,0,1,8.9-5.82,37.92,37.92,0,0,1,12.54-1.76h11.54l2.88-17.8h13.4l-10.83,67ZM407,310.07,411.55,282h-8.13q-8.18,0-12.15,3.31t-5.21,11q-1.21,7.48,1.43,10.61t10.3,3.13H407"/><path id="path80" class="cls-3" d="M438.35,271.4H490q11.23,0,15.5,4.24t2.73,13.77l-5,31.21H489.63l4.77-29.52q.88-5.43-.54-7.16t-6.7-1.73h-7.54l-6.21,38.42H459.66l6.21-38.42H450.15l-6.21,38.42H430.39l8-49.22"/><path id="path82" class="cls-3" d="M538.17,265.81h-14.1l2-12.21h14.1Zm-8.86,54.81h-14.1l8-49.22h14.1l-8,49.22"/><path id="path84" class="cls-3" d="M548.9,271.4h25.3q11.47,0,15.71,4.17t2.67,13.84l-5,31.21H574.09L578.88,291q.89-5.52-.62-7.16t-6.84-1.64H560.6l-6.21,38.42H540.94l8-49.22"/></g></g></g></svg>